<mxfile host="app.diagrams.net" modified="2020-10-27T16:31:23.009Z" agent="5.0 (Windows NT 10.0; Win64; x64) AppleWebKit/537.36 (KHTML, like Gecko) Chrome/86.0.4240.111 Safari/537.36" etag="kMoXyZYnF8kTvfb4Ag_S" version="13.8.5" type="github">
  <diagram name="Page-1" id="97916047-d0de-89f5-080d-49f4d83e522f">
    <mxGraphModel dx="3057.5" dy="567" grid="1" gridSize="10" guides="1" tooltips="1" connect="1" arrows="1" fold="1" page="1" pageScale="1.5" pageWidth="1169" pageHeight="827" background="#ffffff" math="0" shadow="0">
      <root>
        <mxCell id="0" />
        <mxCell id="1" parent="0" />
        <mxCell id="2" value="Estudio de Mercado" style="rounded=1;fillColor=#10739E;strokeColor=none;shadow=1;gradientColor=none;fontStyle=1;fontColor=#FFFFFF;fontSize=14;" parent="1" vertex="1">
          <mxGeometry x="240" y="340" width="200" height="60" as="geometry" />
        </mxCell>
        <mxCell id="3" value="Identificar consumidores meta / Susan" style="rounded=1;fillColor=#10739E;strokeColor=none;shadow=1;gradientColor=none;fontStyle=1;fontColor=#FFFFFF;fontSize=14;" parent="1" vertex="1">
          <mxGeometry x="200" y="450" width="280" height="70" as="geometry" />
        </mxCell>
        <mxCell id="13" value="Desarrollar cuestionario preliminar / Susan" style="rounded=1;fillColor=#10739E;strokeColor=none;shadow=1;gradientColor=none;fontStyle=1;fontColor=#FFFFFF;fontSize=14;" parent="1" vertex="1">
          <mxGeometry x="190" y="580" width="300" height="60" as="geometry" />
        </mxCell>
        <mxCell id="18" value="Preparar las etiquetas de correo / Steve" style="rounded=1;fillColor=#10739E;strokeColor=none;shadow=1;gradientColor=none;fontStyle=1;fontColor=#FFFFFF;fontSize=14;" parent="1" vertex="1">
          <mxGeometry x="-300.5" y="1130" width="300" height="80" as="geometry" />
        </mxCell>
        <mxCell id="54" value="" style="edgeStyle=elbowEdgeStyle;elbow=vertical;strokeWidth=4;endArrow=block;endFill=1;fontStyle=1;strokeColor=#23445D;exitX=0.5;exitY=1;exitDx=0;exitDy=0;entryX=0.5;entryY=0;entryDx=0;entryDy=0;" parent="1" source="3" target="13" edge="1">
          <mxGeometry x="22" y="165.5" width="100" height="100" as="geometry">
            <mxPoint x="22" y="265.5" as="sourcePoint" />
            <mxPoint x="122" y="165.5" as="targetPoint" />
            <Array as="points">
              <mxPoint x="350" y="540" />
              <mxPoint x="640" y="440" />
              <mxPoint x="580" y="460" />
              <mxPoint x="640" y="440" />
              <mxPoint x="600" y="470" />
              <mxPoint x="652" y="555.5" />
            </Array>
          </mxGeometry>
        </mxCell>
        <mxCell id="MonK_nBEftqNI48fa0WK-56" value="Imprimir cuestionario / Steve" style="rounded=1;fillColor=#10739E;strokeColor=none;shadow=1;gradientColor=none;fontStyle=1;fontColor=#FFFFFF;fontSize=14;" parent="1" vertex="1">
          <mxGeometry x="50" y="1130" width="240" height="80" as="geometry" />
        </mxCell>
        <mxCell id="MonK_nBEftqNI48fa0WK-58" value="" style="edgeStyle=elbowEdgeStyle;elbow=vertical;strokeWidth=4;endArrow=block;endFill=1;fontStyle=1;strokeColor=#23445D;entryX=0.5;entryY=0;entryDx=0;entryDy=0;exitX=0.5;exitY=1;exitDx=0;exitDy=0;" parent="1" source="MonK_nBEftqNI48fa0WK-61" target="MonK_nBEftqNI48fa0WK-56" edge="1">
          <mxGeometry x="602" y="165.5" width="100" height="100" as="geometry">
            <mxPoint x="1120" y="405.5" as="sourcePoint" />
            <mxPoint x="1270" y="580" as="targetPoint" />
            <Array as="points">
              <mxPoint x="480" y="1060" />
              <mxPoint x="1150" y="490" />
              <mxPoint x="1260" y="410" />
              <mxPoint x="1552" y="555.5" />
            </Array>
          </mxGeometry>
        </mxCell>
        <mxCell id="MonK_nBEftqNI48fa0WK-59" value="" style="edgeStyle=elbowEdgeStyle;elbow=vertical;strokeWidth=4;endArrow=block;endFill=1;fontStyle=1;strokeColor=#23445D;exitX=0.5;exitY=1;exitDx=0;exitDy=0;entryX=0.5;entryY=0;entryDx=0;entryDy=0;" parent="1" source="MonK_nBEftqNI48fa0WK-61" target="18" edge="1">
          <mxGeometry x="604" y="160" width="100" height="100" as="geometry">
            <mxPoint x="1120" y="405.5" as="sourcePoint" />
            <mxPoint x="872" y="574.5" as="targetPoint" />
            <Array as="points">
              <mxPoint x="250" y="1060" />
              <mxPoint x="350" y="1010" />
              <mxPoint x="1000" y="1010" />
              <mxPoint x="970" y="900" />
              <mxPoint x="1000" y="490" />
              <mxPoint x="1172" y="454.5" />
              <mxPoint x="1222" y="434.5" />
              <mxPoint x="1162" y="454.5" />
              <mxPoint x="1222" y="434.5" />
              <mxPoint x="1182" y="464.5" />
              <mxPoint x="1234" y="550" />
            </Array>
          </mxGeometry>
        </mxCell>
        <mxCell id="MonK_nBEftqNI48fa0WK-60" value="Pruebas piloto del cuestionario / Susan" style="rounded=1;fillColor=#10739E;strokeColor=none;shadow=1;gradientColor=none;fontStyle=1;fontColor=#FFFFFF;fontSize=14;" parent="1" vertex="1">
          <mxGeometry x="185" y="700" width="310" height="60" as="geometry" />
        </mxCell>
        <mxCell id="MonK_nBEftqNI48fa0WK-61" value="Revisar los comentarios y &#xa;terminar cuestionario / Susan" style="rounded=1;fillColor=#10739E;strokeColor=none;shadow=1;gradientColor=none;fontStyle=1;fontColor=#FFFFFF;fontSize=14;" parent="1" vertex="1">
          <mxGeometry x="185" y="850" width="310" height="90" as="geometry" />
        </mxCell>
        <mxCell id="MonK_nBEftqNI48fa0WK-63" value="" style="edgeStyle=elbowEdgeStyle;elbow=vertical;strokeWidth=4;endArrow=block;endFill=1;fontStyle=1;strokeColor=#23445D;entryX=0.5;entryY=0;entryDx=0;entryDy=0;exitX=0.5;exitY=1;exitDx=0;exitDy=0;" parent="1" source="13" target="MonK_nBEftqNI48fa0WK-60" edge="1">
          <mxGeometry x="172" y="440" width="100" height="100" as="geometry">
            <mxPoint x="610" y="640" as="sourcePoint" />
            <mxPoint x="840" y="854.5" as="targetPoint" />
            <Array as="points">
              <mxPoint x="320" y="690" />
              <mxPoint x="450" y="710" />
              <mxPoint x="380" y="650" />
              <mxPoint x="720" y="690" />
              <mxPoint x="720" y="680" />
              <mxPoint x="790" y="734.5" />
              <mxPoint x="830" y="684.5" />
              <mxPoint x="1122" y="830" />
            </Array>
          </mxGeometry>
        </mxCell>
        <mxCell id="qH_kxZcO0b0OmxRwehkp-55" value="Desarrollar SW de anÃ¡lisis de datos / Andy" style="rounded=1;fillColor=#10739E;strokeColor=none;shadow=1;gradientColor=none;fontStyle=1;fontColor=#FFFFFF;fontSize=14;" parent="1" vertex="1">
          <mxGeometry x="340" y="1130" width="310" height="80" as="geometry" />
        </mxCell>
        <mxCell id="qH_kxZcO0b0OmxRwehkp-56" value="Desarrollar SW de prueba de datos / Susan" style="rounded=1;fillColor=#10739E;strokeColor=none;shadow=1;gradientColor=none;fontStyle=1;fontColor=#FFFFFF;fontSize=14;" parent="1" vertex="1">
          <mxGeometry x="700" y="1130" width="300" height="80" as="geometry" />
        </mxCell>
        <mxCell id="qH_kxZcO0b0OmxRwehkp-58" value="" style="edgeStyle=elbowEdgeStyle;elbow=vertical;strokeWidth=4;endArrow=block;endFill=1;fontStyle=1;strokeColor=#23445D;exitX=0.5;exitY=1;exitDx=0;exitDy=0;entryX=0.5;entryY=0;entryDx=0;entryDy=0;" parent="1" source="MonK_nBEftqNI48fa0WK-61" target="qH_kxZcO0b0OmxRwehkp-56" edge="1">
          <mxGeometry x="1404" y="160" width="100" height="100" as="geometry">
            <mxPoint x="1141.0000000000005" y="1000" as="sourcePoint" />
            <mxPoint x="729.9999999999995" y="1130" as="targetPoint" />
            <Array as="points">
              <mxPoint x="450" y="1060" />
              <mxPoint x="790" y="1090" />
              <mxPoint x="1150" y="1010" />
              <mxPoint x="1800" y="1010" />
              <mxPoint x="1770" y="900" />
              <mxPoint x="1800" y="490" />
              <mxPoint x="1972" y="454.5" />
              <mxPoint x="2022" y="434.5" />
              <mxPoint x="1962" y="454.5" />
              <mxPoint x="2022" y="434.5" />
              <mxPoint x="1982" y="464.5" />
              <mxPoint x="2034" y="550" />
            </Array>
          </mxGeometry>
        </mxCell>
        <mxCell id="qH_kxZcO0b0OmxRwehkp-59" value="" style="edgeStyle=elbowEdgeStyle;elbow=vertical;strokeWidth=4;endArrow=block;endFill=1;fontStyle=1;strokeColor=#23445D;entryX=0.5;entryY=0;entryDx=0;entryDy=0;exitX=0.5;exitY=1;exitDx=0;exitDy=0;" parent="1" source="MonK_nBEftqNI48fa0WK-61" target="qH_kxZcO0b0OmxRwehkp-55" edge="1">
          <mxGeometry x="872" y="165.5" width="100" height="100" as="geometry">
            <mxPoint x="611.0000000000005" y="1000" as="sourcePoint" />
            <mxPoint x="459.99999999999955" y="1130" as="targetPoint" />
            <Array as="points">
              <mxPoint x="410" y="1060" />
              <mxPoint x="1420" y="490" />
              <mxPoint x="1530" y="410" />
              <mxPoint x="1822" y="555.5" />
            </Array>
          </mxGeometry>
        </mxCell>
        <mxCell id="qH_kxZcO0b0OmxRwehkp-60" value="Enviar el cuestionario por correo y &#xa;obtener respuestas / Steve" style="rounded=1;fillColor=#10739E;strokeColor=none;shadow=1;gradientColor=none;fontStyle=1;fontColor=#FFFFFF;fontSize=14;" parent="1" vertex="1">
          <mxGeometry x="-140" y="1340" width="310" height="70" as="geometry" />
        </mxCell>
        <mxCell id="qH_kxZcO0b0OmxRwehkp-61" value="" style="edgeStyle=elbowEdgeStyle;elbow=vertical;strokeWidth=4;endArrow=block;endFill=1;fontStyle=1;strokeColor=#23445D;exitX=0.5;exitY=1;exitDx=0;exitDy=0;entryX=0.5;entryY=0;entryDx=0;entryDy=0;" parent="1" source="18" target="qH_kxZcO0b0OmxRwehkp-60" edge="1">
          <mxGeometry x="114.5" y="380" width="100" height="100" as="geometry">
            <mxPoint x="-148.49999999999955" y="1220" as="sourcePoint" />
            <mxPoint x="15" y="1290" as="targetPoint" />
            <Array as="points">
              <mxPoint x="-239.5" y="1280" />
              <mxPoint x="-139.5" y="1230" />
              <mxPoint x="510.5" y="1230" />
              <mxPoint x="480.5" y="1120" />
              <mxPoint x="510.5" y="710" />
              <mxPoint x="682.5" y="674.5" />
              <mxPoint x="732.5" y="654.5" />
              <mxPoint x="672.5" y="674.5" />
              <mxPoint x="732.5" y="654.5" />
              <mxPoint x="692.5" y="684.5" />
              <mxPoint x="744.5" y="770" />
            </Array>
          </mxGeometry>
        </mxCell>
        <mxCell id="qH_kxZcO0b0OmxRwehkp-63" value="" style="edgeStyle=elbowEdgeStyle;elbow=vertical;strokeWidth=4;endArrow=block;endFill=1;fontStyle=1;strokeColor=#23445D;exitX=0.519;exitY=1;exitDx=0;exitDy=0;entryX=0.5;entryY=0;entryDx=0;entryDy=0;exitPerimeter=0;" parent="1" source="MonK_nBEftqNI48fa0WK-56" target="qH_kxZcO0b0OmxRwehkp-60" edge="1">
          <mxGeometry x="439.5" y="390" width="100" height="100" as="geometry">
            <mxPoint x="174.5" y="1220" as="sourcePoint" />
            <mxPoint x="339.99999999999955" y="1330" as="targetPoint" />
            <Array as="points">
              <mxPoint x="100" y="1280" />
              <mxPoint x="185.5" y="1240" />
              <mxPoint x="835.5" y="1240" />
              <mxPoint x="805.5" y="1130" />
              <mxPoint x="835.5" y="720" />
              <mxPoint x="1007.5" y="684.5" />
              <mxPoint x="1057.5" y="664.5" />
              <mxPoint x="997.5" y="684.5" />
              <mxPoint x="1057.5" y="664.5" />
              <mxPoint x="1017.5" y="694.5" />
              <mxPoint x="1069.5" y="780" />
            </Array>
          </mxGeometry>
        </mxCell>
        <mxCell id="qH_kxZcO0b0OmxRwehkp-64" value="Probar el SW / Andy" style="rounded=1;fillColor=#10739E;strokeColor=none;shadow=1;gradientColor=none;fontStyle=1;fontColor=#FFFFFF;fontSize=14;" parent="1" vertex="1">
          <mxGeometry x="570" y="1340" width="240" height="70" as="geometry" />
        </mxCell>
        <mxCell id="qH_kxZcO0b0OmxRwehkp-65" value="" style="edgeStyle=elbowEdgeStyle;elbow=vertical;strokeWidth=4;endArrow=block;endFill=1;fontStyle=1;strokeColor=#23445D;exitX=0.5;exitY=1;exitDx=0;exitDy=0;entryX=0.5;entryY=0;entryDx=0;entryDy=0;" parent="1" source="qH_kxZcO0b0OmxRwehkp-56" target="qH_kxZcO0b0OmxRwehkp-64" edge="1">
          <mxGeometry x="1174.5" y="400" width="100" height="100" as="geometry">
            <mxPoint x="909.5599999999995" y="1220" as="sourcePoint" />
            <mxPoint x="749.9999999999995" y="1330" as="targetPoint" />
            <Array as="points">
              <mxPoint x="790" y="1300" />
              <mxPoint x="835" y="1290" />
              <mxPoint x="920.5" y="1250" />
              <mxPoint x="1570.5" y="1250" />
              <mxPoint x="1540.5" y="1140" />
              <mxPoint x="1570.5" y="730" />
              <mxPoint x="1742.5" y="694.5" />
              <mxPoint x="1792.5" y="674.5" />
              <mxPoint x="1732.5" y="694.5" />
              <mxPoint x="1792.5" y="674.5" />
              <mxPoint x="1752.5" y="704.5" />
              <mxPoint x="1804.5" y="790" />
            </Array>
          </mxGeometry>
        </mxCell>
        <mxCell id="qH_kxZcO0b0OmxRwehkp-66" value="" style="edgeStyle=elbowEdgeStyle;elbow=vertical;strokeWidth=4;endArrow=block;endFill=1;fontStyle=1;strokeColor=#23445D;exitX=0.5;exitY=1;exitDx=0;exitDy=0;entryX=0.5;entryY=0;entryDx=0;entryDy=0;" parent="1" source="qH_kxZcO0b0OmxRwehkp-55" target="qH_kxZcO0b0OmxRwehkp-64" edge="1">
          <mxGeometry x="755" y="400" width="100" height="100" as="geometry">
            <mxPoint x="490" y="1230" as="sourcePoint" />
            <mxPoint x="655.4999999999995" y="1340" as="targetPoint" />
            <Array as="points">
              <mxPoint x="401" y="1300" />
              <mxPoint x="501" y="1250" />
              <mxPoint x="1151" y="1250" />
              <mxPoint x="1121" y="1140" />
              <mxPoint x="1151" y="730" />
              <mxPoint x="1323" y="694.5" />
              <mxPoint x="1373" y="674.5" />
              <mxPoint x="1313" y="694.5" />
              <mxPoint x="1373" y="674.5" />
              <mxPoint x="1333" y="704.5" />
              <mxPoint x="1385" y="790" />
            </Array>
          </mxGeometry>
        </mxCell>
        <mxCell id="qH_kxZcO0b0OmxRwehkp-67" value="Introducir los datos de las respuestas / Jim" style="rounded=1;fillColor=#10739E;strokeColor=none;shadow=1;gradientColor=none;fontStyle=1;fontColor=#FFFFFF;fontSize=14;" parent="1" vertex="1">
          <mxGeometry x="180" y="1520" width="310" height="80" as="geometry" />
        </mxCell>
        <mxCell id="qH_kxZcO0b0OmxRwehkp-68" value="" style="edgeStyle=elbowEdgeStyle;elbow=vertical;strokeWidth=4;endArrow=block;endFill=1;fontStyle=1;strokeColor=#23445D;exitX=0.5;exitY=1;exitDx=0;exitDy=0;entryX=0.5;entryY=0;entryDx=0;entryDy=0;" parent="1" source="qH_kxZcO0b0OmxRwehkp-60" target="qH_kxZcO0b0OmxRwehkp-67" edge="1">
          <mxGeometry x="259.5" y="620" width="100" height="100" as="geometry">
            <mxPoint x="-0.5000000000004547" y="1430" as="sourcePoint" />
            <mxPoint x="194.5" y="1550" as="targetPoint" />
            <Array as="points">
              <mxPoint x="110" y="1480" />
              <mxPoint x="-94.5" y="1520" />
              <mxPoint x="5.5" y="1470" />
              <mxPoint x="655.5" y="1470" />
              <mxPoint x="625.5" y="1360" />
              <mxPoint x="655.5" y="950" />
              <mxPoint x="827.5" y="914.5" />
              <mxPoint x="877.5" y="894.5" />
              <mxPoint x="817.5" y="914.5" />
              <mxPoint x="877.5" y="894.5" />
              <mxPoint x="837.5" y="924.5" />
              <mxPoint x="889.5" y="1010" />
            </Array>
          </mxGeometry>
        </mxCell>
        <mxCell id="qH_kxZcO0b0OmxRwehkp-69" value="" style="edgeStyle=elbowEdgeStyle;elbow=vertical;strokeWidth=4;endArrow=block;endFill=1;fontStyle=1;strokeColor=#23445D;exitX=0.5;exitY=1;exitDx=0;exitDy=0;entryX=0.5;entryY=0;entryDx=0;entryDy=0;" parent="1" source="qH_kxZcO0b0OmxRwehkp-64" target="qH_kxZcO0b0OmxRwehkp-67" edge="1">
          <mxGeometry x="864.5" y="580" width="100" height="100" as="geometry">
            <mxPoint x="540" y="1390" as="sourcePoint" />
            <mxPoint x="380" y="1510" as="targetPoint" />
            <Array as="points">
              <mxPoint x="480" y="1480" />
              <mxPoint x="525" y="1470" />
              <mxPoint x="610.5" y="1430" />
              <mxPoint x="1260.5" y="1430" />
              <mxPoint x="1230.5" y="1320" />
              <mxPoint x="1260.5" y="910" />
              <mxPoint x="1432.5" y="874.5" />
              <mxPoint x="1482.5" y="854.5" />
              <mxPoint x="1422.5" y="874.5" />
              <mxPoint x="1482.5" y="854.5" />
              <mxPoint x="1442.5" y="884.5" />
              <mxPoint x="1494.5" y="970" />
            </Array>
          </mxGeometry>
        </mxCell>
        <mxCell id="qH_kxZcO0b0OmxRwehkp-70" value="Analizar los resultados / Jim" style="rounded=1;fillColor=#10739E;strokeColor=none;shadow=1;gradientColor=none;fontStyle=1;fontColor=#FFFFFF;fontSize=14;" parent="1" vertex="1">
          <mxGeometry x="180" y="1660" width="310" height="80" as="geometry" />
        </mxCell>
        <mxCell id="qH_kxZcO0b0OmxRwehkp-71" value="Preparar el informe / Jim" style="rounded=1;fillColor=#10739E;strokeColor=none;shadow=1;gradientColor=none;fontStyle=1;fontColor=#FFFFFF;fontSize=14;" parent="1" vertex="1">
          <mxGeometry x="180" y="1800" width="310" height="80" as="geometry" />
        </mxCell>
        <mxCell id="qH_kxZcO0b0OmxRwehkp-72" value="" style="edgeStyle=elbowEdgeStyle;elbow=vertical;strokeWidth=4;endArrow=block;endFill=1;fontStyle=1;strokeColor=#23445D;exitX=0.5;exitY=1;exitDx=0;exitDy=0;entryX=0.5;entryY=0;entryDx=0;entryDy=0;" parent="1" source="qH_kxZcO0b0OmxRwehkp-67" target="qH_kxZcO0b0OmxRwehkp-70" edge="1">
          <mxGeometry x="214.5" y="760" width="100" height="100" as="geometry">
            <mxPoint x="-30.000000000000455" y="1550" as="sourcePoint" />
            <mxPoint x="289.99999999999955" y="1660" as="targetPoint" />
            <Array as="points">
              <mxPoint x="335" y="1630" />
              <mxPoint x="-139.5" y="1660" />
              <mxPoint x="-39.5" y="1610" />
              <mxPoint x="610.5" y="1610" />
              <mxPoint x="580.5" y="1500" />
              <mxPoint x="610.5" y="1090" />
              <mxPoint x="782.5" y="1054.5" />
              <mxPoint x="832.5" y="1034.5" />
              <mxPoint x="772.5" y="1054.5" />
              <mxPoint x="832.5" y="1034.5" />
              <mxPoint x="792.5" y="1064.5" />
              <mxPoint x="844.5" y="1150" />
            </Array>
          </mxGeometry>
        </mxCell>
        <mxCell id="qH_kxZcO0b0OmxRwehkp-74" value="" style="edgeStyle=elbowEdgeStyle;elbow=vertical;strokeWidth=4;endArrow=block;endFill=1;fontStyle=1;strokeColor=#23445D;exitX=0.5;exitY=1;exitDx=0;exitDy=0;entryX=0.5;entryY=0;entryDx=0;entryDy=0;" parent="1" source="qH_kxZcO0b0OmxRwehkp-70" target="qH_kxZcO0b0OmxRwehkp-71" edge="1">
          <mxGeometry x="264.5" y="910" width="100" height="100" as="geometry">
            <mxPoint x="19.999999999999545" y="1700" as="sourcePoint" />
            <mxPoint x="339.99999999999955" y="1810" as="targetPoint" />
            <Array as="points">
              <mxPoint x="310" y="1770" />
              <mxPoint x="-89.5" y="1810" />
              <mxPoint x="10.5" y="1760" />
              <mxPoint x="660.5" y="1760" />
              <mxPoint x="630.5" y="1650" />
              <mxPoint x="660.5" y="1240" />
              <mxPoint x="832.5" y="1204.5" />
              <mxPoint x="882.5" y="1184.5" />
              <mxPoint x="822.5" y="1204.5" />
              <mxPoint x="882.5" y="1184.5" />
              <mxPoint x="842.5" y="1214.5" />
              <mxPoint x="894.5" y="1300" />
            </Array>
          </mxGeometry>
        </mxCell>
        <mxCell id="qH_kxZcO0b0OmxRwehkp-75" value="" style="edgeStyle=elbowEdgeStyle;elbow=vertical;strokeWidth=4;endArrow=block;endFill=1;fontStyle=1;strokeColor=#23445D;entryX=0.5;entryY=0;entryDx=0;entryDy=0;exitX=0.5;exitY=1;exitDx=0;exitDy=0;" parent="1" source="MonK_nBEftqNI48fa0WK-60" target="MonK_nBEftqNI48fa0WK-61" edge="1">
          <mxGeometry x="172" y="570" width="100" height="100" as="geometry">
            <mxPoint x="339.99999999999955" y="770" as="sourcePoint" />
            <mxPoint x="339.99999999999955" y="830" as="targetPoint" />
            <Array as="points">
              <mxPoint x="340" y="790" />
              <mxPoint x="320" y="820" />
              <mxPoint x="450" y="840" />
              <mxPoint x="380" y="780" />
              <mxPoint x="720" y="820" />
              <mxPoint x="720" y="810" />
              <mxPoint x="790" y="864.5" />
              <mxPoint x="830" y="814.5" />
              <mxPoint x="1122" y="960" />
            </Array>
          </mxGeometry>
        </mxCell>
        <mxCell id="nJVkl-Y024d4mezmcb8f-54" value="" style="edgeStyle=elbowEdgeStyle;elbow=vertical;strokeWidth=4;endArrow=block;endFill=1;fontStyle=1;strokeColor=#23445D;exitX=0.5;exitY=1;exitDx=0;exitDy=0;entryX=0.5;entryY=0;entryDx=0;entryDy=0;" edge="1" parent="1" source="2" target="3">
          <mxGeometry x="20.82" y="55.5" width="100" height="100" as="geometry">
            <mxPoint x="338.82" y="410" as="sourcePoint" />
            <mxPoint x="339" y="450" as="targetPoint" />
            <Array as="points">
              <mxPoint x="348.82" y="430" />
              <mxPoint x="638.82" y="330" />
              <mxPoint x="578.82" y="350" />
              <mxPoint x="638.82" y="330" />
              <mxPoint x="598.82" y="360" />
              <mxPoint x="650.82" y="445.5" />
            </Array>
          </mxGeometry>
        </mxCell>
      </root>
    </mxGraphModel>
  </diagram>
</mxfile>
